<?xml version="1.0" encoding="UTF-8" standalone="no"?>
<svg
   height="20px"
   viewBox="0 -960 960 960"
   width="20px"
   fill="#5f6368"
   version="1.1"
   id="svg1"
   sodipodi:docname="lock-countdown.svg"
   inkscape:version="1.3.2 (091e20e, 2023-11-25)"
   xmlns:inkscape="http://www.inkscape.org/namespaces/inkscape"
   xmlns:sodipodi="http://sodipodi.sourceforge.net/DTD/sodipodi-0.dtd"
   xmlns="http://www.w3.org/2000/svg"
   xmlns:svg="http://www.w3.org/2000/svg">
  <defs
     id="defs1" />
  <sodipodi:namedview
     id="namedview1"
     pagecolor="#ffffff"
     bordercolor="#000000"
     borderopacity="0.25"
     inkscape:showpageshadow="2"
     inkscape:pageopacity="0.0"
     inkscape:pagecheckerboard="0"
     inkscape:deskcolor="#d1d1d1"
     inkscape:zoom="11.8"
     inkscape:cx="10"
     inkscape:cy="10"
     inkscape:window-width="1456"
     inkscape:window-height="449"
     inkscape:window-x="60"
     inkscape:window-y="25"
     inkscape:window-maximized="0"
     inkscape:current-layer="svg1" />
  <path
     d="M263.72-96Q234-96 213-117.15T192-168v-384q0-29.7 21.15-50.85Q234.3-624 264-624h24v-96q0-79.68 56.23-135.84 56.22-56.16 136-56.16Q560-912 616-855.84q56 56.16 56 135.84v96h24q29.7 0 50.85 21.15Q768-581.7 768-552v384q0 29.7-21.16 50.85Q725.68-96 695.96-96H263.72Zm.28-72h432v-384H264v384Zm216.21-120Q510-288 531-309.21t21-51Q552-390 530.79-411t-51-21Q450-432 429-410.79t-21 51Q408-330 429.21-309t51 21ZM360-624h240v-96q0-50-35-85t-85-35q-50 0-85 35t-35 85v96Zm-96 456v-384 384Z"
     id="path1" />
  <circle
     style="fill:#fdffff;fill-opacity:1;stroke-width:48"
     id="path2"
     cx="732.20337"
     cy="-219.66103"
     r="215.59323" />
  <path
     d="m 731.79661,-111.45763 q 44.23729,0 75.20339,-30.9661 30.9661,-30.9661 30.9661,-75.20339 0,-44.2373 -30.9661,-75.20342 -30.9661,-30.96603 -75.20339,-30.96603 v 106.16945 l -75.20338,75.20339 q 15.48305,14.5983 34.72626,22.78221 19.24322,8.18389 40.47712,8.18389 z m 0,70.77966 q -36.71695,0 -69.01017,-13.934738 -32.29321,-13.934749 -56.18135,-37.822879 -23.88814,-23.888143 -37.82288,-56.181363 -13.93475,-32.29322 -13.93475,-69.01017 0,-36.71692 13.93475,-69.01013 13.93474,-32.29329 37.82288,-56.18136 23.88814,-23.88815 56.18135,-37.8229 32.29322,-13.93476 69.01017,-13.93476 36.71695,0 69.01017,13.93476 32.29322,13.93475 56.18136,37.8229 23.88813,23.88807 37.82288,56.18136 13.93474,32.29321 13.93474,69.01013 0,36.71695 -13.93474,69.01017 -13.93475,32.29322 -37.82288,56.181363 -23.88814,23.88813 -56.18136,37.822879 -32.29322,13.934738 -69.01017,13.934738 z m 0,-35.389827 q 59.27797,0 100.41865,-41.140673 41.14068,-41.14068 41.14068,-100.41865 0,-59.27798 -41.14068,-100.41866 -41.14068,-41.14068 -100.41865,-41.14068 -59.27797,0 -100.41864,41.14068 -41.14068,41.14068 -41.14068,100.41866 0,59.27797 41.14068,100.41865 41.14067,41.140673 100.41864,41.140673 z m 0,-141.559323 z"
     id="path1-2"
     style="stroke-width:0.442373" />
</svg>
